<svg width="200" height="32" viewBox="0 0 200 32" fill="none" xmlns="http://www.w3.org/2000/svg">
<path fill-rule="evenodd" clip-rule="evenodd" d="M16 5C9.92487 5 5 9.92487 5 16C5 22.0751 9.92487 27 16 27C22.0751 27 27 22.0751 27 16C27 9.92487 22.0751 5 16 5ZM3 16C3 8.8203 8.8203 3 16 3C23.1797 3 29 8.8203 29 16C29 23.1797 23.1797 29 16 29C8.8203 29 3 23.1797 3 16Z" fill="#858584"/>
<path fill-rule="evenodd" clip-rule="evenodd" d="M3.6875 12C3.6875 11.4477 4.13522 11 4.6875 11H27.3125C27.8648 11 28.3125 11.4477 28.3125 12C28.3125 12.5523 27.8648 13 27.3125 13H4.6875C4.13522 13 3.6875 12.5523 3.6875 12Z" fill="#858584"/>
<path fill-rule="evenodd" clip-rule="evenodd" d="M3.6875 20C3.6875 19.4477 4.13522 19 4.6875 19H27.3125C27.8648 19 28.3125 19.4477 28.3125 20C28.3125 20.5523 27.8648 21 27.3125 21H4.6875C4.13522 21 3.6875 20.5523 3.6875 20Z" fill="#858584"/>
<path fill-rule="evenodd" clip-rule="evenodd" d="M13.3837 8.13841C12.5439 10.0995 12 12.8783 12 16.0002C12 19.1221 12.5439 21.9009 13.3837 23.862C13.8044 24.8443 14.2797 25.5753 14.7565 26.0462C15.229 26.5129 15.6481 26.6752 16 26.6752C16.3519 26.6752 16.771 26.5129 17.2435 26.0462C17.7203 25.5753 18.1956 24.8443 18.6163 23.862C19.4561 21.9009 20 19.1221 20 16.0002C20 12.8783 19.4561 10.0995 18.6163 8.13841C18.1956 7.15609 17.7203 6.42507 17.2435 5.95417C16.771 5.4875 16.3519 5.3252 16 5.3252C15.6481 5.3252 15.229 5.4875 14.7565 5.95417C14.2797 6.42507 13.8044 7.15609 13.3837 8.13841ZM13.3511 4.53118C14.075 3.81627 14.9712 3.3252 16 3.3252C17.0288 3.3252 17.9251 3.81627 18.6489 4.53118C19.3685 5.24186 19.9707 6.2206 20.4548 7.35104C21.4246 9.61551 22 12.6741 22 16.0002C22 19.3263 21.4246 22.3849 20.4548 24.6493C19.9707 25.7798 19.3685 26.7585 18.6489 27.4692C17.925 28.1841 17.0288 28.6752 16 28.6752C14.9712 28.6752 14.075 28.1841 13.3511 27.4692C12.6315 26.7585 12.0293 25.7798 11.5452 24.6493C10.5754 22.3849 10 19.3263 10 16.0002C10 12.6741 10.5754 9.61551 11.5452 7.35104C12.0293 6.2206 12.6315 5.24186 13.3511 4.53118Z" fill="#858584"/>
<path d="M54 19.5C54.8284 19.5 55.5 18.8284 55.5 18C55.5 17.1716 54.8284 16.5 54 16.5C53.1716 16.5 52.5 17.1716 52.5 18C52.5 18.8284 53.1716 19.5 54 19.5Z" fill="#858584"/>
<path d="M62 19.5C62.8284 19.5 63.5 18.8284 63.5 18C63.5 17.1716 62.8284 16.5 62 16.5C61.1716 16.5 60.5 17.1716 60.5 18C60.5 18.8284 61.1716 19.5 62 19.5Z" fill="#858584"/>
<path fill-rule="evenodd" clip-rule="evenodd" d="M57.9917 9.99959C55.8239 9.98356 53.6668 10.3055 51.5982 10.9539C51.0712 11.119 50.51 10.8257 50.3449 10.2987C50.1797 9.77168 50.473 9.21056 51 9.04539C53.2646 8.33563 55.6259 7.98281 57.9991 7.99959C60.3722 7.98281 62.7335 8.33563 64.9982 9.04539C65.5252 9.21056 65.8185 9.77168 65.6533 10.2987C65.4882 10.8257 64.927 11.119 64.4 10.9539C62.3314 10.3055 60.1743 9.98356 58.0065 9.99959H57.9917Z" fill="#858584"/>
<path fill-rule="evenodd" clip-rule="evenodd" d="M50.3449 21.7012C50.51 21.1742 51.0712 20.8809 51.5982 21.046C53.6668 21.6944 55.8239 22.0163 57.9917 22.0003H58.0065C60.1743 22.0163 62.3314 21.6944 64.4 21.046C64.927 20.8809 65.4882 21.1742 65.6533 21.7012C65.8185 22.2282 65.5252 22.7893 64.9982 22.9545C62.7335 23.6643 60.3722 24.0171 57.9991 24.0003C55.6259 24.0171 53.2646 23.6643 51 22.9545C50.473 22.7893 50.1797 22.2282 50.3449 21.7012Z" fill="#858584"/>
<path fill-rule="evenodd" clip-rule="evenodd" d="M62.2195 4.81121C62.6499 4.56852 63.1546 4.49267 63.6373 4.59812C64.9549 4.88366 66.2448 5.28424 67.4924 5.79524C67.7732 5.90352 68.0254 6.07496 68.2294 6.29638C68.4357 6.52018 68.587 6.78885 68.6715 7.08115L72.9074 21.2255C73.0178 21.594 73.0204 21.9865 72.9147 22.3563C72.809 22.7262 72.5995 23.0581 72.3111 23.3126L72.3059 23.3171C70.2385 25.1161 67.4371 26.4777 64.2551 27.2577C63.8132 27.3703 63.3457 27.3265 62.9322 27.1336C62.5205 26.9414 62.1877 26.6132 61.9898 26.2044L60.4816 23.2129C60.2329 22.7197 60.4311 22.1184 60.9243 21.8698C61.4175 21.6211 62.0188 21.8194 62.2674 22.3125L63.7799 25.3125L63.781 25.3147C66.7189 24.5943 69.2131 23.3571 70.9931 21.8083L71.6495 22.5627L70.9879 21.8128C70.9897 21.8113 70.991 21.8092 70.9917 21.8069C70.9923 21.8046 70.9923 21.8022 70.9916 21.7999L66.7555 7.65465C66.752 7.65325 66.7485 7.65182 66.7449 7.65037C65.602 7.18149 64.4201 6.81412 63.2127 6.55253L63.2106 6.55205C63.2076 6.55139 63.2044 6.55186 63.2017 6.55337C63.1993 6.55473 63.1975 6.55684 63.1964 6.55937L62.2115 9.53905C62.0381 10.0634 61.4725 10.348 60.9481 10.1747C60.4238 10.0013 60.1392 9.43574 60.3125 8.91136L61.3029 5.91516C61.4624 5.44707 61.7887 5.0541 62.2195 4.81121Z" fill="#858584"/>
<path fill-rule="evenodd" clip-rule="evenodd" d="M52.7982 6.55337C52.7955 6.55186 52.7924 6.55139 52.7894 6.55205L52.7872 6.55252C51.5799 6.81412 50.3979 7.18148 49.255 7.65037C49.2515 7.65182 49.248 7.65324 49.2444 7.65465L45.0084 21.7996C45.0077 21.8019 45.0076 21.8046 45.0083 21.8069C45.0089 21.809 45.01 21.8108 45.0115 21.8123C46.7912 23.3593 49.2836 24.5949 52.2189 25.3147L52.22 25.3125L53.7325 22.3125C53.9812 21.8194 54.5825 21.6211 55.0756 21.8698C55.5688 22.1184 55.767 22.7197 55.5184 23.2129L54.0101 26.2045C53.8123 26.6132 53.4795 26.9414 53.0677 27.1336C52.6542 27.3265 52.1868 27.3703 51.7448 27.2577C48.5629 26.4777 45.7615 25.1161 43.694 23.3171L43.6889 23.3126C43.4004 23.0581 43.1909 22.7262 43.0852 22.3563C42.9796 21.9865 42.9821 21.5942 43.0925 21.2258C43.0925 21.2259 43.0925 21.2257 43.0925 21.2258L47.3284 7.08117C47.4129 6.78887 47.5643 6.52019 47.7705 6.29638C47.9746 6.07496 48.2268 5.90352 48.5076 5.79524C49.7555 5.28409 51.0458 4.88344 52.3637 4.59788C52.8461 4.49279 53.3504 4.5687 53.7805 4.81121C54.2113 5.05409 54.5375 5.44708 54.697 5.91518L54.7 5.92385L55.6874 8.91136C55.8608 9.43574 55.5762 10.0013 55.0518 10.1747C54.5274 10.348 53.9618 10.0634 53.7885 9.53905L52.8036 6.55937C52.8025 6.55684 52.8006 6.55473 52.7982 6.55337Z" fill="#858584"/>
<path d="M54 19.5C54.8284 19.5 55.5 18.8284 55.5 18C55.5 17.1716 54.8284 16.5 54 16.5C53.1716 16.5 52.5 17.1716 52.5 18C52.5 18.8284 53.1716 19.5 54 19.5Z" fill="#858584"/>
<path d="M62 19.5C62.8284 19.5 63.5 18.8284 63.5 18C63.5 17.1716 62.8284 16.5 62 16.5C61.1716 16.5 60.5 17.1716 60.5 18C60.5 18.8284 61.1716 19.5 62 19.5Z" fill="#858584"/>
<path fill-rule="evenodd" clip-rule="evenodd" d="M57.9917 9.99959C55.8239 9.98356 53.6668 10.3055 51.5982 10.9539C51.0712 11.119 50.51 10.8257 50.3449 10.2987C50.1797 9.77168 50.473 9.21056 51 9.04539C53.2646 8.33563 55.6259 7.98281 57.9991 7.99959C60.3722 7.98281 62.7335 8.33563 64.9982 9.04539C65.5252 9.21056 65.8185 9.77168 65.6533 10.2987C65.4882 10.8257 64.927 11.119 64.4 10.9539C62.3314 10.3055 60.1743 9.98356 58.0065 9.99959H57.9917Z" fill="#858584"/>
<path fill-rule="evenodd" clip-rule="evenodd" d="M50.3449 21.7012C50.51 21.1742 51.0712 20.8809 51.5982 21.046C53.6668 21.6944 55.8239 22.0163 57.9917 22.0003H58.0065C60.1743 22.0163 62.3314 21.6944 64.4 21.046C64.927 20.8809 65.4882 21.1742 65.6533 21.7012C65.8185 22.2282 65.5252 22.7893 64.9982 22.9545C62.7335 23.6643 60.3722 24.0171 57.9991 24.0003C55.6259 24.0171 53.2646 23.6643 51 22.9545C50.473 22.7893 50.1797 22.2282 50.3449 21.7012Z" fill="#858584"/>
<path fill-rule="evenodd" clip-rule="evenodd" d="M62.2195 4.81121C62.6499 4.56852 63.1546 4.49267 63.6373 4.59812C64.9549 4.88366 66.2448 5.28424 67.4924 5.79524C67.7732 5.90352 68.0254 6.07496 68.2294 6.29638C68.4357 6.52018 68.587 6.78885 68.6715 7.08115L72.9074 21.2255C73.0178 21.594 73.0204 21.9865 72.9147 22.3563C72.809 22.7262 72.5995 23.0581 72.3111 23.3126L72.3059 23.3171C70.2385 25.1161 67.4371 26.4777 64.2551 27.2577C63.8132 27.3703 63.3457 27.3265 62.9322 27.1336C62.5205 26.9414 62.1877 26.6132 61.9898 26.2044L60.4816 23.2129C60.2329 22.7197 60.4311 22.1184 60.9243 21.8698C61.4175 21.6211 62.0188 21.8194 62.2674 22.3125L63.7799 25.3125L63.781 25.3147C66.7189 24.5943 69.2131 23.3571 70.9931 21.8083L71.6495 22.5627L70.9879 21.8128C70.9897 21.8113 70.991 21.8092 70.9917 21.8069C70.9923 21.8046 70.9923 21.8022 70.9916 21.7999L66.7555 7.65465C66.752 7.65325 66.7485 7.65182 66.7449 7.65037C65.602 7.18149 64.4201 6.81412 63.2127 6.55253L63.2106 6.55205C63.2076 6.55139 63.2044 6.55186 63.2017 6.55337C63.1993 6.55473 63.1975 6.55684 63.1964 6.55937L62.2115 9.53905C62.0381 10.0634 61.4725 10.348 60.9481 10.1747C60.4238 10.0013 60.1392 9.43574 60.3125 8.91136L61.3029 5.91516C61.4624 5.44707 61.7887 5.0541 62.2195 4.81121Z" fill="#858584"/>
<path fill-rule="evenodd" clip-rule="evenodd" d="M52.7982 6.55337C52.7955 6.55186 52.7924 6.55139 52.7894 6.55205L52.7872 6.55252C51.5799 6.81412 50.3979 7.18148 49.255 7.65037C49.2515 7.65182 49.248 7.65324 49.2444 7.65465L45.0084 21.7996C45.0077 21.8019 45.0076 21.8046 45.0083 21.8069C45.0089 21.809 45.01 21.8108 45.0115 21.8123C46.7912 23.3593 49.2836 24.5949 52.2189 25.3147L52.22 25.3125L53.7325 22.3125C53.9812 21.8194 54.5825 21.6211 55.0756 21.8698C55.5688 22.1184 55.767 22.7197 55.5184 23.2129L54.0101 26.2045C53.8123 26.6132 53.4795 26.9414 53.0677 27.1336C52.6542 27.3265 52.1868 27.3703 51.7448 27.2577C48.5629 26.4777 45.7615 25.1161 43.694 23.3171L43.6889 23.3126C43.4004 23.0581 43.1909 22.7262 43.0852 22.3563C42.9796 21.9865 42.9821 21.5942 43.0925 21.2258C43.0925 21.2259 43.0925 21.2257 43.0925 21.2258L47.3284 7.08117C47.4129 6.78887 47.5643 6.52019 47.7705 6.29638C47.9746 6.07496 48.2268 5.90352 48.5076 5.79524C49.7555 5.28409 51.0458 4.88344 52.3637 4.59788C52.8461 4.49279 53.3504 4.5687 53.7805 4.81121C54.2113 5.05409 54.5375 5.44708 54.697 5.91518L54.7 5.92385L55.6874 8.91136C55.8608 9.43574 55.5762 10.0013 55.0518 10.1747C54.5274 10.348 53.9618 10.0634 53.7885 9.53905L52.8036 6.55937C52.8025 6.55684 52.8006 6.55473 52.7982 6.55337Z" fill="#858584"/>
<path fill-rule="evenodd" clip-rule="evenodd" d="M97.5281 11.1183C97.8533 10.9443 98.2478 10.9634 98.5547 11.168L104.555 15.168C104.833 15.3534 105 15.6656 105 16C105 16.3344 104.833 16.6466 104.555 16.8321L98.5547 20.8321C98.2478 21.0366 97.8533 21.0557 97.5281 20.8817C97.203 20.7077 97 20.3688 97 20V12C97 11.6312 97.203 11.2923 97.5281 11.1183ZM99 13.8685V18.1315L102.197 16L99 13.8685Z" fill="#858584"/>
<path fill-rule="evenodd" clip-rule="evenodd" d="M99.9985 5.04985L99.9816 5.0498L99.9188 5.04983C99.8643 5.04996 99.785 5.05035 99.6831 5.05143C99.4794 5.05359 99.1856 5.0585 98.8206 5.06945C98.0912 5.09135 97.0746 5.13749 95.9237 5.23466C93.6473 5.42685 90.7493 5.82571 88.5181 6.67823L88.5034 6.68398C88.0651 6.85941 87.6742 7.13539 87.3622 7.48966C87.0502 7.84393 86.8258 8.26657 86.7071 8.7235L86.7061 8.72726C86.3947 9.94582 86 12.2055 86 15.9999C86 19.7942 86.3947 22.0539 86.7061 23.2725L86.7071 23.2762C86.8258 23.7332 87.0502 24.1558 87.3622 24.5101C87.6742 24.8643 88.0651 25.1403 88.5034 25.3157L88.5181 25.3215C90.7493 26.174 93.6473 26.5729 95.9237 26.7651C97.0746 26.8622 98.0912 26.9084 98.8206 26.9303C99.1856 26.9412 99.4794 26.9461 99.6831 26.9483C99.785 26.9494 99.8643 26.9498 99.9188 26.9499L99.9816 26.9499L99.9985 26.9499H100.001L100.018 26.9499L100.081 26.9499C100.136 26.9498 100.215 26.9494 100.317 26.9483C100.521 26.9461 100.814 26.9412 101.179 26.9303C101.909 26.9084 102.925 26.8622 104.076 26.7651C106.353 26.5729 109.251 26.174 111.482 25.3215L111.497 25.3157C111.935 25.1403 112.326 24.8643 112.638 24.5101C112.95 24.1558 113.174 23.7332 113.293 23.2762L113.294 23.2725C113.605 22.0539 114 19.7942 114 15.9999C114 12.2055 113.605 9.94582 113.294 8.72726L113.293 8.7235C113.174 8.26657 112.95 7.84393 112.638 7.48966C112.326 7.13539 111.935 6.85941 111.497 6.68398L111.482 6.67823C109.251 5.82571 106.353 5.42685 104.076 5.23466C102.925 5.13749 101.909 5.09135 101.179 5.06945C100.814 5.0585 100.521 5.05359 100.317 5.05143C100.215 5.05035 100.136 5.04996 100.081 5.04983L100.018 5.0498L100.001 5.04985H99.9985ZM99.9947 24.9499L100.005 24.9498L100.009 24.9499L100.022 24.9499L100.077 24.9499C100.126 24.9498 100.2 24.9494 100.296 24.9484C100.488 24.9464 100.769 24.9417 101.119 24.9312C101.822 24.9101 102.801 24.8656 103.908 24.7722C106.144 24.5834 108.804 24.2018 110.76 23.4565C110.904 23.3974 111.034 23.3056 111.137 23.1882C111.241 23.0695 111.317 22.928 111.357 22.7751C111.62 21.7429 112 19.6529 112 15.9999C112 12.3468 111.62 10.2568 111.357 9.22464C111.317 9.07168 111.241 8.9302 111.137 8.81154C111.034 8.69415 110.904 8.60233 110.76 8.54326C108.804 7.79791 106.144 7.41635 103.908 7.22757C102.801 7.13411 101.822 7.08963 101.119 7.06855C100.769 7.05802 100.488 7.05336 100.296 7.05132C100.2 7.0503 100.126 7.04994 100.077 7.04983L100.022 7.0498L100.009 7.04983L100.006 7.04985L99.9946 7.04991L99.9914 7.04983L99.9783 7.0498L99.9233 7.04983C99.8741 7.04994 99.8004 7.0503 99.7043 7.05132C99.5123 7.05336 99.2314 7.05802 98.8806 7.06855C98.1784 7.08963 97.1989 7.13411 96.0919 7.22757C93.8559 7.41635 91.1959 7.79791 89.2404 8.54327C89.0956 8.60234 88.9664 8.69415 88.8631 8.81154C88.7586 8.9302 88.6833 9.07168 88.6433 9.22464C88.3797 10.2569 88 12.3468 88 15.9999C88 19.6529 88.3797 21.7429 88.6433 22.7751C88.6833 22.928 88.7586 23.0695 88.8631 23.1882C88.9664 23.3056 89.0956 23.3974 89.2404 23.4565C91.1959 24.2018 93.8559 24.5834 96.0919 24.7722C97.1989 24.8656 98.1784 24.9101 98.8806 24.9312C99.2314 24.9417 99.5123 24.9464 99.7043 24.9484C99.8004 24.9494 99.8741 24.9498 99.9233 24.9499L99.9783 24.9499L99.9914 24.9499L99.9947 24.9499Z" fill="#858584"/>
<path d="M142.001 11.0005C142.001 8.25045 144.313 5.96295 147.063 6.00045C148.026 6.01157 148.966 6.3006 149.768 6.8328C150.571 7.365 151.203 8.11771 151.588 9.00045H156.001L151.963 13.038C151.703 17.0937 149.907 20.8979 146.942 23.6773C143.977 26.4566 140.065 28.0025 136.001 28.0005C132.001 28.0005 131.001 26.5005 131.001 26.5005C131.001 26.5005 135.001 25.0005 137.001 22.0005C137.001 22.0005 129.001 18.0005 131.001 7.00045C131.001 7.00045 136.001 12.0005 142.001 13.0005V11.0005Z" stroke="#858584" stroke-width="2" stroke-linecap="round" stroke-linejoin="round"/>
<path fill-rule="evenodd" clip-rule="evenodd" d="M184 12C181.791 12 180 13.7909 180 16C180 18.2091 181.791 20 184 20C186.209 20 188 18.2091 188 16C188 13.7909 186.209 12 184 12ZM178 16C178 12.6863 180.686 10 184 10C187.314 10 190 12.6863 190 16C190 19.3137 187.314 22 184 22C180.686 22 178 19.3137 178 16Z" fill="#858584"/>
<path fill-rule="evenodd" clip-rule="evenodd" d="M178.5 5.5C175.739 5.5 173.5 7.73858 173.5 10.5V21.5C173.5 24.2614 175.739 26.5 178.5 26.5H189.5C192.261 26.5 194.5 24.2614 194.5 21.5V10.5C194.5 7.73858 192.261 5.5 189.5 5.5H178.5ZM171.5 10.5C171.5 6.63401 174.634 3.5 178.5 3.5H189.5C193.366 3.5 196.5 6.63401 196.5 10.5V21.5C196.5 25.366 193.366 28.5 189.5 28.5H178.5C174.634 28.5 171.5 25.366 171.5 21.5V10.5Z" fill="#858584"/>
<path d="M190.5 11C191.328 11 192 10.3284 192 9.5C192 8.67157 191.328 8 190.5 8C189.672 8 189 8.67157 189 9.5C189 10.3284 189.672 11 190.5 11Z" fill="#858584"/>
</svg>
