<svg width="32" height="32" viewBox="0 0 32 32" fill="none" xmlns="http://www.w3.org/2000/svg">
<g id="Coinbase" clip-path="url(#clip0_3737_8477)">
<path id="Vector" d="M16 32C24.8366 32 32 24.8366 32 16C32 7.16344 24.8366 0 16 0C7.16344 0 0 7.16344 0 16C0 24.8366 7.16344 32 16 32Z" fill="#0052FF"/>
<path id="Vector_2" fill-rule="evenodd" clip-rule="evenodd" d="M4.75 16C4.75 22.2132 9.78678 27.25 16 27.25C22.2132 27.25 27.25 22.2132 27.25 16C27.25 9.78678 22.2132 4.75 16 4.75C9.78678 4.75 4.75 9.78678 4.75 16ZM13.125 12.375C12.7108 12.375 12.375 12.7108 12.375 13.125V18.875C12.375 19.2892 12.7108 19.625 13.125 19.625H18.875C19.2892 19.625 19.625 19.2892 19.625 18.875V13.125C19.625 12.7108 19.2892 12.375 18.875 12.375H13.125Z" fill="white"/>
</g>
<defs>
<clipPath id="clip0_3737_8477">
<rect width="32" height="32" fill="white"/>
</clipPath>
</defs>
</svg>
