<svg width="235" height="86" viewBox="0 0 235 86" fill="none" xmlns="http://www.w3.org/2000/svg">
<g filter="url(#filter0_b_3748_9985)">
<rect width="235" height="84" rx="20" fill="#3B3B3B" fill-opacity="0.5"/>
<path d="M5.472 8.912H1.872L1.26 11H0.18L2.724 2.6H4.62L7.164 11H6.084L5.472 8.912ZM3.6 3.032L2.148 7.976H5.196L3.744 3.032H3.6ZM12.6397 5.048H13.5757V11H12.6397V9.92H12.4957C12.3037 10.304 12.0517 10.608 11.7397 10.832C11.4277 11.056 11.0317 11.168 10.5517 11.168C10.2237 11.168 9.91966 11.112 9.63966 11C9.36766 10.896 9.13166 10.736 8.93166 10.52C8.73966 10.304 8.58766 10.036 8.47566 9.716C8.37166 9.396 8.31966 9.024 8.31966 8.6V5.048H9.25566V8.48C9.25566 9.104 9.38366 9.56 9.63966 9.848C9.89566 10.136 10.2877 10.28 10.8157 10.28C11.3837 10.28 11.8277 10.088 12.1477 9.704C12.4757 9.312 12.6397 8.792 12.6397 8.144V5.048ZM21.3073 8.888C21.2433 9.216 21.1313 9.52 20.9713 9.8C20.8193 10.08 20.6233 10.324 20.3833 10.532C20.1433 10.732 19.8633 10.888 19.5433 11C19.2233 11.112 18.8673 11.168 18.4753 11.168C18.0593 11.168 17.6633 11.1 17.2873 10.964C16.9193 10.828 16.5953 10.632 16.3153 10.376C16.0353 10.112 15.8113 9.792 15.6433 9.416C15.4833 9.04 15.4033 8.608 15.4033 8.12V7.976C15.4033 7.496 15.4833 7.064 15.6433 6.68C15.8113 6.296 16.0353 5.972 16.3153 5.708C16.5953 5.444 16.9193 5.24 17.2873 5.096C17.6633 4.952 18.0593 4.88 18.4753 4.88C18.8513 4.88 19.1993 4.936 19.5193 5.048C19.8393 5.16 20.1193 5.32 20.3593 5.528C20.6073 5.728 20.8073 5.968 20.9593 6.248C21.1193 6.528 21.2273 6.832 21.2833 7.16L20.3473 7.376C20.3233 7.168 20.2633 6.968 20.1673 6.776C20.0793 6.576 19.9553 6.404 19.7953 6.26C19.6433 6.108 19.4553 5.988 19.2313 5.9C19.0073 5.812 18.7473 5.768 18.4513 5.768C18.1633 5.768 17.8913 5.824 17.6353 5.936C17.3873 6.04 17.1673 6.192 16.9753 6.392C16.7833 6.584 16.6313 6.816 16.5193 7.088C16.4153 7.36 16.3633 7.656 16.3633 7.976V8.12C16.3633 8.456 16.4153 8.76 16.5193 9.032C16.6313 9.296 16.7833 9.52 16.9753 9.704C17.1673 9.888 17.3913 10.032 17.6473 10.136C17.9033 10.232 18.1793 10.28 18.4753 10.28C18.7713 10.28 19.0273 10.236 19.2433 10.148C19.4673 10.052 19.6553 9.932 19.8073 9.788C19.9673 9.636 20.0913 9.464 20.1793 9.272C20.2753 9.08 20.3393 8.88 20.3713 8.672L21.3073 8.888ZM22.883 5.048H24.755V2.6H25.691V5.048H27.995V5.912H25.691V9.776C25.691 10.016 25.799 10.136 26.015 10.136H27.707V11H25.679C25.407 11 25.183 10.912 25.007 10.736C24.839 10.56 24.755 10.336 24.755 10.064V5.912H22.883V5.048ZM32.2826 3.272C32.2826 3.04 32.3626 2.844 32.5226 2.684C32.6906 2.516 32.8906 2.432 33.1226 2.432C33.3546 2.432 33.5506 2.516 33.7106 2.684C33.8786 2.844 33.9626 3.04 33.9626 3.272C33.9626 3.504 33.8786 3.704 33.7106 3.872C33.5506 4.032 33.3546 4.112 33.1226 4.112C32.8906 4.112 32.6906 4.032 32.5226 3.872C32.3626 3.704 32.2826 3.504 32.2826 3.272ZM30.5786 10.136H32.6666V5.912H30.7946V5.048H33.6026V10.136H35.5466V11H30.5786V10.136ZM43.3983 8.096C43.3983 8.592 43.3143 9.032 43.1463 9.416C42.9863 9.792 42.7703 10.112 42.4983 10.376C42.2263 10.632 41.9063 10.828 41.5383 10.964C41.1783 11.1 40.8023 11.168 40.4103 11.168C40.0103 11.168 39.6303 11.1 39.2703 10.964C38.9103 10.828 38.5943 10.632 38.3223 10.376C38.0503 10.112 37.8303 9.792 37.6623 9.416C37.5023 9.032 37.4223 8.592 37.4223 8.096V7.952C37.4223 7.464 37.5023 7.032 37.6623 6.656C37.8303 6.272 38.0503 5.948 38.3223 5.684C38.6023 5.42 38.9223 5.22 39.2823 5.084C39.6423 4.948 40.0183 4.88 40.4103 4.88C40.8023 4.88 41.1783 4.948 41.5383 5.084C41.8983 5.22 42.2143 5.42 42.4863 5.684C42.7663 5.948 42.9863 6.272 43.1463 6.656C43.3143 7.032 43.3983 7.464 43.3983 7.952V8.096ZM40.4103 10.28C40.6983 10.28 40.9623 10.232 41.2023 10.136C41.4503 10.032 41.6663 9.884 41.8503 9.692C42.0343 9.5 42.1783 9.272 42.2823 9.008C42.3863 8.736 42.4383 8.432 42.4383 8.096V7.952C42.4383 7.632 42.3863 7.34 42.2823 7.076C42.1783 6.804 42.0343 6.572 41.8503 6.38C41.6663 6.188 41.4503 6.04 41.2023 5.936C40.9543 5.824 40.6903 5.768 40.4103 5.768C40.1303 5.768 39.8663 5.824 39.6183 5.936C39.3703 6.04 39.1543 6.188 38.9703 6.38C38.7863 6.572 38.6423 6.804 38.5383 7.076C38.4343 7.34 38.3823 7.632 38.3823 7.952V8.096C38.3823 8.432 38.4343 8.736 38.5383 9.008C38.6423 9.272 38.7863 9.5 38.9703 9.692C39.1543 9.884 39.3663 10.032 39.6063 10.136C39.8543 10.232 40.1223 10.28 40.4103 10.28ZM46.0659 11H45.1299V5.048H46.0659V6.056H46.2099C46.5779 5.272 47.2179 4.88 48.1299 4.88C48.8179 4.88 49.3659 5.096 49.7739 5.528C50.1819 5.952 50.3859 6.592 50.3859 7.448V11H49.4499V7.64C49.4499 7.016 49.3099 6.548 49.0299 6.236C48.7499 5.924 48.3699 5.768 47.8899 5.768C47.3219 5.768 46.8739 5.964 46.5459 6.356C46.2259 6.74 46.0659 7.256 46.0659 7.904V11ZM60.5093 8.312C60.5333 8.904 60.7173 9.38 61.0613 9.74C61.4053 10.1 61.8853 10.28 62.5013 10.28C62.7813 10.28 63.0253 10.248 63.2333 10.184C63.4413 10.12 63.6173 10.032 63.7613 9.92C63.9133 9.808 64.0333 9.68 64.1213 9.536C64.2173 9.384 64.2933 9.224 64.3493 9.056L65.2373 9.296C65.0693 9.848 64.7573 10.3 64.3013 10.652C63.8533 10.996 63.2453 11.168 62.4773 11.168C62.0533 11.168 61.6613 11.096 61.3013 10.952C60.9493 10.8 60.6453 10.588 60.3893 10.316C60.1333 10.044 59.9333 9.72 59.7893 9.344C59.6453 8.968 59.5732 8.552 59.5732 8.096V7.808C59.5732 7.392 59.6453 7.004 59.7893 6.644C59.9413 6.284 60.1493 5.976 60.4133 5.72C60.6773 5.456 60.9853 5.252 61.3373 5.108C61.6973 4.956 62.0853 4.88 62.5013 4.88C62.9893 4.88 63.4093 4.972 63.7613 5.156C64.1213 5.332 64.4133 5.552 64.6373 5.816C64.8693 6.08 65.0373 6.368 65.1413 6.68C65.2533 6.992 65.3093 7.28 65.3093 7.544V8.312H60.5093ZM62.5013 5.768C62.2373 5.768 61.9893 5.812 61.7573 5.9C61.5333 5.98 61.3333 6.096 61.1573 6.248C60.9893 6.4 60.8493 6.58 60.7373 6.788C60.6333 6.988 60.5653 7.208 60.5333 7.448H64.3733C64.3573 7.192 64.2933 6.96 64.1813 6.752C64.0773 6.544 63.9373 6.368 63.7613 6.224C63.5933 6.08 63.3973 5.968 63.1733 5.888C62.9573 5.808 62.7333 5.768 62.5013 5.768ZM68.1089 11H67.1729V5.048H68.1089V6.056H68.2529C68.6209 5.272 69.2609 4.88 70.1729 4.88C70.8609 4.88 71.4089 5.096 71.8169 5.528C72.2249 5.952 72.4289 6.592 72.4289 7.448V11H71.4929V7.64C71.4929 7.016 71.3529 6.548 71.0729 6.236C70.7929 5.924 70.4129 5.768 69.9329 5.768C69.3649 5.768 68.9169 5.964 68.5889 6.356C68.2689 6.74 68.1089 7.256 68.1089 7.904V11ZM79.1286 10.088H78.9846C78.8886 10.272 78.7646 10.432 78.6126 10.568C78.4686 10.704 78.3086 10.816 78.1326 10.904C77.9646 10.992 77.7846 11.056 77.5926 11.096C77.4006 11.144 77.2166 11.168 77.0406 11.168C76.6406 11.168 76.2686 11.1 75.9246 10.964C75.5806 10.828 75.2766 10.632 75.0126 10.376C74.7566 10.12 74.5526 9.804 74.4006 9.428C74.2566 9.044 74.1846 8.608 74.1846 8.12V7.928C74.1846 7.448 74.2606 7.02 74.4126 6.644C74.5646 6.26 74.7686 5.94 75.0246 5.684C75.2806 5.42 75.5806 5.22 75.9246 5.084C76.2686 4.948 76.6326 4.88 77.0166 4.88C77.4246 4.88 77.8046 4.972 78.1566 5.156C78.5166 5.332 78.7926 5.608 78.9846 5.984H79.1286V2.6H80.0646V11H79.1286V10.088ZM77.1366 10.28C77.4166 10.28 77.6766 10.228 77.9166 10.124C78.1566 10.02 78.3646 9.872 78.5406 9.68C78.7246 9.488 78.8686 9.26 78.9726 8.996C79.0766 8.724 79.1286 8.424 79.1286 8.096V7.952C79.1286 7.632 79.0766 7.34 78.9726 7.076C78.8686 6.804 78.7246 6.572 78.5406 6.38C78.3646 6.188 78.1526 6.04 77.9046 5.936C77.6646 5.824 77.4086 5.768 77.1366 5.768C76.8566 5.768 76.5926 5.82 76.3446 5.924C76.1046 6.028 75.8926 6.176 75.7086 6.368C75.5326 6.56 75.3926 6.788 75.2886 7.052C75.1926 7.316 75.1446 7.608 75.1446 7.928V8.12C75.1446 8.456 75.1926 8.756 75.2886 9.02C75.3926 9.284 75.5326 9.512 75.7086 9.704C75.8926 9.888 76.1046 10.032 76.3446 10.136C76.5846 10.232 76.8486 10.28 77.1366 10.28ZM83.1042 6.584C83.1042 6.872 83.2242 7.092 83.4642 7.244C83.7122 7.396 84.1602 7.496 84.8082 7.544C85.5042 7.6 86.0322 7.768 86.3922 8.048C86.7602 8.32 86.9442 8.72 86.9442 9.248V9.32C86.9442 9.608 86.8842 9.868 86.7642 10.1C86.6522 10.324 86.4922 10.516 86.2842 10.676C86.0842 10.836 85.8362 10.956 85.5402 11.036C85.2522 11.124 84.9362 11.168 84.5922 11.168C84.1282 11.168 83.7282 11.108 83.3922 10.988C83.0642 10.86 82.7882 10.696 82.5642 10.496C82.3482 10.288 82.1842 10.056 82.0722 9.8C81.9602 9.536 81.8962 9.272 81.8802 9.008L82.7682 8.792C82.8082 9.248 82.9842 9.616 83.2962 9.896C83.6082 10.168 84.0242 10.304 84.5442 10.304C84.9842 10.304 85.3362 10.22 85.6002 10.052C85.8722 9.876 86.0082 9.632 86.0082 9.32C86.0082 8.984 85.8762 8.744 85.6122 8.6C85.3482 8.456 84.9202 8.364 84.3282 8.324C83.6402 8.276 83.1122 8.116 82.7442 7.844C82.3762 7.572 82.1922 7.176 82.1922 6.656V6.584C82.1922 6.304 82.2522 6.06 82.3722 5.852C82.4922 5.636 82.6522 5.456 82.8522 5.312C83.0602 5.168 83.2922 5.06 83.5482 4.988C83.8042 4.916 84.0722 4.88 84.3522 4.88C84.7442 4.88 85.0882 4.936 85.3842 5.048C85.6802 5.152 85.9282 5.292 86.1282 5.468C86.3282 5.636 86.4802 5.832 86.5842 6.056C86.6962 6.28 86.7682 6.504 86.8002 6.728L85.9122 6.944C85.8722 6.56 85.7162 6.26 85.4442 6.044C85.1802 5.828 84.8322 5.72 84.4002 5.72C84.2322 5.72 84.0682 5.74 83.9082 5.78C83.7562 5.812 83.6202 5.864 83.5002 5.936C83.3802 6.008 83.2842 6.1 83.2122 6.212C83.1402 6.316 83.1042 6.44 83.1042 6.584ZM98.4115 3.272C98.4115 3.04 98.4915 2.844 98.6515 2.684C98.8195 2.516 99.0195 2.432 99.2515 2.432C99.4835 2.432 99.6795 2.516 99.8395 2.684C100.008 2.844 100.092 3.04 100.092 3.272C100.092 3.504 100.008 3.704 99.8395 3.872C99.6795 4.032 99.4835 4.112 99.2515 4.112C99.0195 4.112 98.8195 4.032 98.6515 3.872C98.4915 3.704 98.4115 3.504 98.4115 3.272ZM96.7075 10.136H98.7955V5.912H96.9235V5.048H99.7315V10.136H101.676V11H96.7075V10.136ZM104.847 11H103.911V5.048H104.847V6.056H104.991C105.359 5.272 105.999 4.88 106.911 4.88C107.599 4.88 108.147 5.096 108.555 5.528C108.963 5.952 109.167 6.592 109.167 7.448V11H108.231V7.64C108.231 7.016 108.091 6.548 107.811 6.236C107.531 5.924 107.151 5.768 106.671 5.768C106.103 5.768 105.655 5.964 105.327 6.356C105.007 6.74 104.847 7.256 104.847 7.904V11ZM113.047 10.328C113.047 10.096 113.127 9.9 113.287 9.74C113.455 9.572 113.655 9.488 113.887 9.488C114.119 9.488 114.315 9.572 114.475 9.74C114.643 9.9 114.727 10.096 114.727 10.328C114.727 10.56 114.643 10.76 114.475 10.928C114.315 11.088 114.119 11.168 113.887 11.168C113.655 11.168 113.455 11.088 113.287 10.928C113.127 10.76 113.047 10.56 113.047 10.328ZM113.047 5.72C113.047 5.488 113.127 5.292 113.287 5.132C113.455 4.964 113.655 4.88 113.887 4.88C114.119 4.88 114.315 4.964 114.475 5.132C114.643 5.292 114.727 5.488 114.727 5.72C114.727 5.952 114.643 6.152 114.475 6.32C114.315 6.48 114.119 6.56 113.887 6.56C113.655 6.56 113.455 6.48 113.287 6.32C113.127 6.152 113.047 5.952 113.047 5.72Z" fill="white"/>
<path d="M2.508 48.144V33.4H20.292V38.188H7.524V45.408H8.208C8.56267 44.42 9.22133 43.5713 10.184 42.862C11.172 42.1273 12.4893 41.76 14.136 41.76C15.3773 41.76 16.492 41.9753 17.48 42.406C18.468 42.8367 19.304 43.432 19.988 44.192C20.672 44.952 21.1913 45.864 21.546 46.928C21.926 47.992 22.116 49.1573 22.116 50.424V50.652C22.116 51.9947 21.888 53.2613 21.432 54.452C21.0013 55.6427 20.3553 56.694 19.494 57.606C18.658 58.4927 17.6193 59.202 16.378 59.734C15.1367 60.266 13.7053 60.532 12.084 60.532C10.4627 60.532 9.03133 60.3167 7.79 59.886C6.54867 59.43 5.49733 58.8093 4.636 58.024C3.8 57.2133 3.154 56.2633 2.698 55.174C2.26733 54.0593 2.052 52.856 2.052 51.564V50.652H7.068V51.108C7.068 52.4507 7.47333 53.5653 8.284 54.452C9.12 55.3133 10.336 55.744 11.932 55.744C13.528 55.744 14.782 55.3133 15.694 54.452C16.6313 53.5907 17.1 52.4 17.1 50.88C17.1 49.436 16.758 48.3593 16.074 47.65C15.39 46.9153 14.4907 46.548 13.376 46.548C12.6413 46.548 12.046 46.7127 11.59 47.042C11.134 47.346 10.8427 47.7133 10.716 48.144H2.508ZM30.9056 52.476C30.9056 53.3627 31.2222 54.1353 31.8556 54.794C32.5142 55.4273 33.5276 55.744 34.8956 55.744C36.2636 55.744 37.3402 55.3513 38.1256 54.566C38.9362 53.7553 39.3416 52.704 39.3416 51.412V47.992H38.6576C38.3029 48.8787 37.7202 49.6007 36.9096 50.158C36.0989 50.69 34.9462 50.956 33.4516 50.956C32.3116 50.956 31.2476 50.7533 30.2596 50.348C29.2969 49.9173 28.4482 49.322 27.7136 48.562C27.0042 47.802 26.4469 46.89 26.0416 45.826C25.6362 44.762 25.4336 43.584 25.4336 42.292V41.836C25.4336 40.5693 25.6616 39.3913 26.1176 38.302C26.5736 37.1873 27.2069 36.2373 28.0176 35.452C28.8536 34.6413 29.8542 34.008 31.0196 33.552C32.2102 33.096 33.5276 32.868 34.9716 32.868C36.2889 32.868 37.5176 33.0833 38.6576 33.514C39.8229 33.9447 40.8236 34.5527 41.6596 35.338C42.4956 36.098 43.1542 37.0227 43.6356 38.112C44.1169 39.176 44.3576 40.354 44.3576 41.646V51.336C44.3576 52.78 44.1169 54.072 43.6356 55.212C43.1542 56.352 42.4956 57.3147 41.6596 58.1C40.8236 58.8853 39.8356 59.4933 38.6956 59.924C37.5809 60.3293 36.3649 60.532 35.0476 60.532C33.7556 60.532 32.5522 60.3547 31.4376 60C30.3229 59.62 29.3476 59.088 28.5116 58.404C27.7009 57.6947 27.0549 56.846 26.5736 55.858C26.1176 54.87 25.8896 53.7427 25.8896 52.476H30.9056ZM34.8956 37.656C33.6036 37.656 32.5396 38.0487 31.7036 38.834C30.8676 39.594 30.4496 40.62 30.4496 41.912C30.4496 43.204 30.8676 44.2427 31.7036 45.028C32.5396 45.788 33.6036 46.168 34.8956 46.168C36.1876 46.168 37.2516 45.788 38.0876 45.028C38.9236 44.2427 39.3416 43.204 39.3416 41.912C39.3416 40.62 38.9236 39.594 38.0876 38.834C37.2516 38.0487 36.1876 37.656 34.8956 37.656Z" fill="white"/>
<path d="M0.876 76.6H1.884V80.32H5.46V76.6H6.468V85H5.46V81.256H1.884V85H0.876V76.6ZM14.0077 82.096C14.0077 82.592 13.9237 83.032 13.7557 83.416C13.5957 83.792 13.3797 84.112 13.1077 84.376C12.8357 84.632 12.5157 84.828 12.1477 84.964C11.7877 85.1 11.4117 85.168 11.0197 85.168C10.6197 85.168 10.2397 85.1 9.87966 84.964C9.51966 84.828 9.20366 84.632 8.93166 84.376C8.65966 84.112 8.43966 83.792 8.27166 83.416C8.11166 83.032 8.03166 82.592 8.03166 82.096V81.952C8.03166 81.464 8.11166 81.032 8.27166 80.656C8.43966 80.272 8.65966 79.948 8.93166 79.684C9.21166 79.42 9.53166 79.22 9.89166 79.084C10.2517 78.948 10.6277 78.88 11.0197 78.88C11.4117 78.88 11.7877 78.948 12.1477 79.084C12.5077 79.22 12.8237 79.42 13.0957 79.684C13.3757 79.948 13.5957 80.272 13.7557 80.656C13.9237 81.032 14.0077 81.464 14.0077 81.952V82.096ZM11.0197 84.28C11.3077 84.28 11.5717 84.232 11.8117 84.136C12.0597 84.032 12.2757 83.884 12.4597 83.692C12.6437 83.5 12.7877 83.272 12.8917 83.008C12.9957 82.736 13.0477 82.432 13.0477 82.096V81.952C13.0477 81.632 12.9957 81.34 12.8917 81.076C12.7877 80.804 12.6437 80.572 12.4597 80.38C12.2757 80.188 12.0597 80.04 11.8117 79.936C11.5637 79.824 11.2997 79.768 11.0197 79.768C10.7397 79.768 10.4757 79.824 10.2277 79.936C9.97966 80.04 9.76366 80.188 9.57966 80.38C9.39566 80.572 9.25166 80.804 9.14766 81.076C9.04366 81.34 8.99166 81.632 8.99166 81.952V82.096C8.99166 82.432 9.04366 82.736 9.14766 83.008C9.25166 83.272 9.39566 83.5 9.57966 83.692C9.76366 83.884 9.97566 84.032 10.2157 84.136C10.4637 84.232 10.7317 84.28 11.0197 84.28ZM19.9873 79.048H20.9233V85H19.9873V83.92H19.8433C19.6513 84.304 19.3993 84.608 19.0873 84.832C18.7753 85.056 18.3793 85.168 17.8993 85.168C17.5713 85.168 17.2673 85.112 16.9873 85C16.7153 84.896 16.4793 84.736 16.2793 84.52C16.0873 84.304 15.9353 84.036 15.8233 83.716C15.7193 83.396 15.6673 83.024 15.6673 82.6V79.048H16.6033V82.48C16.6033 83.104 16.7313 83.56 16.9873 83.848C17.2433 84.136 17.6353 84.28 18.1633 84.28C18.7313 84.28 19.1753 84.088 19.4953 83.704C19.8233 83.312 19.9873 82.792 19.9873 82.144V79.048ZM22.751 79.048H24.911V79.84H25.055C25.207 79.512 25.423 79.272 25.703 79.12C25.983 78.96 26.303 78.88 26.663 78.88C27.263 78.88 27.747 79.076 28.115 79.468C28.483 79.86 28.679 80.432 28.703 81.184L27.719 81.328C27.719 80.776 27.587 80.38 27.323 80.14C27.059 79.892 26.735 79.768 26.351 79.768C26.103 79.768 25.887 79.816 25.703 79.912C25.527 80.008 25.379 80.14 25.259 80.308C25.139 80.476 25.051 80.672 24.995 80.896C24.939 81.12 24.911 81.36 24.911 81.616V84.136H26.423V85H22.607V84.136H23.975V79.912H22.751V79.048ZM31.6706 80.584C31.6706 80.872 31.7906 81.092 32.0306 81.244C32.2786 81.396 32.7266 81.496 33.3746 81.544C34.0706 81.6 34.5986 81.768 34.9586 82.048C35.3266 82.32 35.5106 82.72 35.5106 83.248V83.32C35.5106 83.608 35.4506 83.868 35.3306 84.1C35.2186 84.324 35.0586 84.516 34.8506 84.676C34.6506 84.836 34.4026 84.956 34.1066 85.036C33.8186 85.124 33.5026 85.168 33.1586 85.168C32.6946 85.168 32.2946 85.108 31.9586 84.988C31.6306 84.86 31.3546 84.696 31.1306 84.496C30.9146 84.288 30.7506 84.056 30.6386 83.8C30.5266 83.536 30.4626 83.272 30.4466 83.008L31.3346 82.792C31.3746 83.248 31.5506 83.616 31.8626 83.896C32.1746 84.168 32.5906 84.304 33.1106 84.304C33.5506 84.304 33.9026 84.22 34.1666 84.052C34.4386 83.876 34.5746 83.632 34.5746 83.32C34.5746 82.984 34.4426 82.744 34.1786 82.6C33.9146 82.456 33.4866 82.364 32.8946 82.324C32.2066 82.276 31.6786 82.116 31.3106 81.844C30.9426 81.572 30.7586 81.176 30.7586 80.656V80.584C30.7586 80.304 30.8186 80.06 30.9386 79.852C31.0586 79.636 31.2186 79.456 31.4186 79.312C31.6266 79.168 31.8586 79.06 32.1146 78.988C32.3706 78.916 32.6386 78.88 32.9186 78.88C33.3106 78.88 33.6546 78.936 33.9506 79.048C34.2466 79.152 34.4946 79.292 34.6946 79.468C34.8946 79.636 35.0466 79.832 35.1506 80.056C35.2626 80.28 35.3346 80.504 35.3666 80.728L34.4786 80.944C34.4386 80.56 34.2826 80.26 34.0106 80.044C33.7466 79.828 33.3986 79.72 32.9666 79.72C32.7986 79.72 32.6346 79.74 32.4746 79.78C32.3226 79.812 32.1866 79.864 32.0666 79.936C31.9466 80.008 31.8506 80.1 31.7786 80.212C31.7066 80.316 31.6706 80.44 31.6706 80.584Z" fill="white"/>
<path d="M74.228 50.732C74.228 51.1053 74.1533 51.46 74.004 51.796C73.8733 52.1133 73.6867 52.3933 73.444 52.636C73.2013 52.86 72.912 53.0373 72.576 53.168C72.2587 53.3173 71.9227 53.392 71.568 53.392C71.1947 53.392 70.8493 53.3173 70.532 53.168C70.2147 53.0373 69.9347 52.86 69.692 52.636C69.4493 52.3933 69.2533 52.1133 69.104 51.796C68.9733 51.46 68.908 51.1053 68.908 50.732C68.908 50.3587 68.9733 50.0133 69.104 49.696C69.2533 49.36 69.4493 49.08 69.692 48.856C69.9347 48.6133 70.2147 48.4267 70.532 48.296C70.8493 48.1467 71.1947 48.072 71.568 48.072C71.9227 48.072 72.2587 48.1467 72.576 48.296C72.912 48.4267 73.2013 48.6133 73.444 48.856C73.6867 49.08 73.8733 49.36 74.004 49.696C74.1533 50.0133 74.228 50.3587 74.228 50.732ZM74.228 41.38C74.228 41.7533 74.1533 42.108 74.004 42.444C73.8733 42.7613 73.6867 43.0413 73.444 43.284C73.2013 43.508 72.912 43.6947 72.576 43.844C72.2587 43.9747 71.9227 44.04 71.568 44.04C71.1947 44.04 70.8493 43.9747 70.532 43.844C70.2147 43.6947 69.9347 43.508 69.692 43.284C69.4493 43.0413 69.2533 42.7613 69.104 42.444C68.9733 42.108 68.908 41.7533 68.908 41.38C68.908 41.0067 68.9733 40.6613 69.104 40.344C69.2533 40.008 69.4493 39.728 69.692 39.504C69.9347 39.2613 70.2147 39.0747 70.532 38.944C70.8493 38.7947 71.1947 38.72 71.568 38.72C71.9227 38.72 72.2587 38.7947 72.576 38.944C72.912 39.0747 73.2013 39.2613 73.444 39.504C73.6867 39.728 73.8733 40.008 74.004 40.344C74.1533 40.6613 74.228 41.0067 74.228 41.38Z" fill="white"/>
<path d="M93.508 48.144V33.4H111.292V38.188H98.524V45.408H99.208C99.5627 44.42 100.221 43.5713 101.184 42.862C102.172 42.1273 103.489 41.76 105.136 41.76C106.377 41.76 107.492 41.9753 108.48 42.406C109.468 42.8367 110.304 43.432 110.988 44.192C111.672 44.952 112.191 45.864 112.546 46.928C112.926 47.992 113.116 49.1573 113.116 50.424V50.652C113.116 51.9947 112.888 53.2613 112.432 54.452C112.001 55.6427 111.355 56.694 110.494 57.606C109.658 58.4927 108.619 59.202 107.378 59.734C106.137 60.266 104.705 60.532 103.084 60.532C101.463 60.532 100.031 60.3167 98.79 59.886C97.5487 59.43 96.4973 58.8093 95.636 58.024C94.8 57.2133 94.154 56.2633 93.698 55.174C93.2673 54.0593 93.052 52.856 93.052 51.564V50.652H98.068V51.108C98.068 52.4507 98.4733 53.5653 99.284 54.452C100.12 55.3133 101.336 55.744 102.932 55.744C104.528 55.744 105.782 55.3133 106.694 54.452C107.631 53.5907 108.1 52.4 108.1 50.88C108.1 49.436 107.758 48.3593 107.074 47.65C106.39 46.9153 105.491 46.548 104.376 46.548C103.641 46.548 103.046 46.7127 102.59 47.042C102.134 47.346 101.843 47.7133 101.716 48.144H93.508ZM121.906 52.476C121.906 53.3627 122.222 54.1353 122.856 54.794C123.514 55.4273 124.528 55.744 125.896 55.744C127.264 55.744 128.34 55.3513 129.126 54.566C129.936 53.7553 130.342 52.704 130.342 51.412V47.992H129.658C129.303 48.8787 128.72 49.6007 127.91 50.158C127.099 50.69 125.946 50.956 124.452 50.956C123.312 50.956 122.248 50.7533 121.26 50.348C120.297 49.9173 119.448 49.322 118.714 48.562C118.004 47.802 117.447 46.89 117.042 45.826C116.636 44.762 116.434 43.584 116.434 42.292V41.836C116.434 40.5693 116.662 39.3913 117.118 38.302C117.574 37.1873 118.207 36.2373 119.018 35.452C119.854 34.6413 120.854 34.008 122.02 33.552C123.21 33.096 124.528 32.868 125.972 32.868C127.289 32.868 128.518 33.0833 129.658 33.514C130.823 33.9447 131.824 34.5527 132.66 35.338C133.496 36.098 134.154 37.0227 134.636 38.112C135.117 39.176 135.358 40.354 135.358 41.646V51.336C135.358 52.78 135.117 54.072 134.636 55.212C134.154 56.352 133.496 57.3147 132.66 58.1C131.824 58.8853 130.836 59.4933 129.696 59.924C128.581 60.3293 127.365 60.532 126.048 60.532C124.756 60.532 123.552 60.3547 122.438 60C121.323 59.62 120.348 59.088 119.512 58.404C118.701 57.6947 118.055 56.846 117.574 55.858C117.118 54.87 116.89 53.7427 116.89 52.476H121.906ZM125.896 37.656C124.604 37.656 123.54 38.0487 122.704 38.834C121.868 39.594 121.45 40.62 121.45 41.912C121.45 43.204 121.868 44.2427 122.704 45.028C123.54 45.788 124.604 46.168 125.896 46.168C127.188 46.168 128.252 45.788 129.088 45.028C129.924 44.2427 130.342 43.204 130.342 41.912C130.342 40.62 129.924 39.594 129.088 38.834C128.252 38.0487 127.188 37.656 125.896 37.656Z" fill="white"/>
<path d="M91.552 76.6H93.472L94.6 84.568H94.744L95.872 76.6H97.792V85H96.856V77.032H96.712L95.584 85H93.76L92.632 77.032H92.488V85H91.552V76.6ZM101.24 77.272C101.24 77.04 101.32 76.844 101.48 76.684C101.648 76.516 101.848 76.432 102.08 76.432C102.312 76.432 102.508 76.516 102.668 76.684C102.836 76.844 102.92 77.04 102.92 77.272C102.92 77.504 102.836 77.704 102.668 77.872C102.508 78.032 102.312 78.112 102.08 78.112C101.848 78.112 101.648 78.032 101.48 77.872C101.32 77.704 101.24 77.504 101.24 77.272ZM99.5357 84.136H101.624V79.912H99.7517V79.048H102.56V84.136H104.504V85H99.5357V84.136ZM107.675 85H106.739V79.048H107.675V80.056H107.819C108.187 79.272 108.827 78.88 109.739 78.88C110.427 78.88 110.975 79.096 111.383 79.528C111.791 79.952 111.995 80.592 111.995 81.448V85H111.059V81.64C111.059 81.016 110.919 80.548 110.639 80.236C110.359 79.924 109.979 79.768 109.499 79.768C108.931 79.768 108.483 79.964 108.155 80.356C107.835 80.74 107.675 81.256 107.675 81.904V85ZM118.335 79.048H119.271V85H118.335V83.92H118.191C117.999 84.304 117.747 84.608 117.435 84.832C117.123 85.056 116.727 85.168 116.247 85.168C115.919 85.168 115.615 85.112 115.335 85C115.063 84.896 114.827 84.736 114.627 84.52C114.435 84.304 114.283 84.036 114.171 83.716C114.067 83.396 114.015 83.024 114.015 82.6V79.048H114.951V82.48C114.951 83.104 115.079 83.56 115.335 83.848C115.591 84.136 115.983 84.28 116.511 84.28C117.079 84.28 117.523 84.088 117.843 83.704C118.171 83.312 118.335 82.792 118.335 82.144V79.048ZM121.231 79.048H123.103V76.6H124.039V79.048H126.343V79.912H124.039V83.776C124.039 84.016 124.147 84.136 124.363 84.136H126.055V85H124.027C123.755 85 123.531 84.912 123.355 84.736C123.187 84.56 123.103 84.336 123.103 84.064V79.912H121.231V79.048ZM129.466 82.312C129.49 82.904 129.674 83.38 130.018 83.74C130.362 84.1 130.842 84.28 131.458 84.28C131.738 84.28 131.982 84.248 132.19 84.184C132.398 84.12 132.574 84.032 132.718 83.92C132.87 83.808 132.99 83.68 133.078 83.536C133.174 83.384 133.25 83.224 133.306 83.056L134.194 83.296C134.026 83.848 133.714 84.3 133.258 84.652C132.81 84.996 132.202 85.168 131.434 85.168C131.01 85.168 130.618 85.096 130.258 84.952C129.906 84.8 129.602 84.588 129.346 84.316C129.09 84.044 128.89 83.72 128.746 83.344C128.602 82.968 128.53 82.552 128.53 82.096V81.808C128.53 81.392 128.602 81.004 128.746 80.644C128.898 80.284 129.106 79.976 129.37 79.72C129.634 79.456 129.942 79.252 130.294 79.108C130.654 78.956 131.042 78.88 131.458 78.88C131.946 78.88 132.366 78.972 132.718 79.156C133.078 79.332 133.37 79.552 133.594 79.816C133.826 80.08 133.994 80.368 134.098 80.68C134.21 80.992 134.266 81.28 134.266 81.544V82.312H129.466ZM131.458 79.768C131.194 79.768 130.946 79.812 130.714 79.9C130.49 79.98 130.29 80.096 130.114 80.248C129.946 80.4 129.806 80.58 129.694 80.788C129.59 80.988 129.522 81.208 129.49 81.448H133.33C133.314 81.192 133.25 80.96 133.138 80.752C133.034 80.544 132.894 80.368 132.718 80.224C132.55 80.08 132.354 79.968 132.13 79.888C131.914 79.808 131.69 79.768 131.458 79.768ZM137.366 80.584C137.366 80.872 137.486 81.092 137.726 81.244C137.974 81.396 138.422 81.496 139.07 81.544C139.766 81.6 140.294 81.768 140.654 82.048C141.022 82.32 141.206 82.72 141.206 83.248V83.32C141.206 83.608 141.146 83.868 141.026 84.1C140.914 84.324 140.754 84.516 140.546 84.676C140.346 84.836 140.098 84.956 139.802 85.036C139.514 85.124 139.198 85.168 138.854 85.168C138.39 85.168 137.99 85.108 137.654 84.988C137.326 84.86 137.05 84.696 136.826 84.496C136.61 84.288 136.446 84.056 136.334 83.8C136.222 83.536 136.158 83.272 136.142 83.008L137.03 82.792C137.07 83.248 137.246 83.616 137.558 83.896C137.87 84.168 138.286 84.304 138.806 84.304C139.246 84.304 139.598 84.22 139.862 84.052C140.134 83.876 140.27 83.632 140.27 83.32C140.27 82.984 140.138 82.744 139.874 82.6C139.61 82.456 139.182 82.364 138.59 82.324C137.902 82.276 137.374 82.116 137.006 81.844C136.638 81.572 136.454 81.176 136.454 80.656V80.584C136.454 80.304 136.514 80.06 136.634 79.852C136.754 79.636 136.914 79.456 137.114 79.312C137.322 79.168 137.554 79.06 137.81 78.988C138.066 78.916 138.334 78.88 138.614 78.88C139.006 78.88 139.35 78.936 139.646 79.048C139.942 79.152 140.19 79.292 140.39 79.468C140.59 79.636 140.742 79.832 140.846 80.056C140.958 80.28 141.03 80.504 141.062 80.728L140.174 80.944C140.134 80.56 139.978 80.26 139.706 80.044C139.442 79.828 139.094 79.72 138.662 79.72C138.494 79.72 138.33 79.74 138.17 79.78C138.018 79.812 137.882 79.864 137.762 79.936C137.642 80.008 137.546 80.1 137.474 80.212C137.402 80.316 137.366 80.44 137.366 80.584Z" fill="white"/>
<path d="M165.228 50.732C165.228 51.1053 165.153 51.46 165.004 51.796C164.873 52.1133 164.687 52.3933 164.444 52.636C164.201 52.86 163.912 53.0373 163.576 53.168C163.259 53.3173 162.923 53.392 162.568 53.392C162.195 53.392 161.849 53.3173 161.532 53.168C161.215 53.0373 160.935 52.86 160.692 52.636C160.449 52.3933 160.253 52.1133 160.104 51.796C159.973 51.46 159.908 51.1053 159.908 50.732C159.908 50.3587 159.973 50.0133 160.104 49.696C160.253 49.36 160.449 49.08 160.692 48.856C160.935 48.6133 161.215 48.4267 161.532 48.296C161.849 48.1467 162.195 48.072 162.568 48.072C162.923 48.072 163.259 48.1467 163.576 48.296C163.912 48.4267 164.201 48.6133 164.444 48.856C164.687 49.08 164.873 49.36 165.004 49.696C165.153 50.0133 165.228 50.3587 165.228 50.732ZM165.228 41.38C165.228 41.7533 165.153 42.108 165.004 42.444C164.873 42.7613 164.687 43.0413 164.444 43.284C164.201 43.508 163.912 43.6947 163.576 43.844C163.259 43.9747 162.923 44.04 162.568 44.04C162.195 44.04 161.849 43.9747 161.532 43.844C161.215 43.6947 160.935 43.508 160.692 43.284C160.449 43.0413 160.253 42.7613 160.104 42.444C159.973 42.108 159.908 41.7533 159.908 41.38C159.908 41.0067 159.973 40.6613 160.104 40.344C160.253 40.008 160.449 39.728 160.692 39.504C160.935 39.2613 161.215 39.0747 161.532 38.944C161.849 38.7947 162.195 38.72 162.568 38.72C162.923 38.72 163.259 38.7947 163.576 38.944C163.912 39.0747 164.201 39.2613 164.444 39.504C164.687 39.728 164.873 40.008 165.004 40.344C165.153 40.6613 165.228 41.0067 165.228 41.38Z" fill="white"/>
<path d="M184.508 48.144V33.4H202.292V38.188H189.524V45.408H190.208C190.563 44.42 191.221 43.5713 192.184 42.862C193.172 42.1273 194.489 41.76 196.136 41.76C197.377 41.76 198.492 41.9753 199.48 42.406C200.468 42.8367 201.304 43.432 201.988 44.192C202.672 44.952 203.191 45.864 203.546 46.928C203.926 47.992 204.116 49.1573 204.116 50.424V50.652C204.116 51.9947 203.888 53.2613 203.432 54.452C203.001 55.6427 202.355 56.694 201.494 57.606C200.658 58.4927 199.619 59.202 198.378 59.734C197.137 60.266 195.705 60.532 194.084 60.532C192.463 60.532 191.031 60.3167 189.79 59.886C188.549 59.43 187.497 58.8093 186.636 58.024C185.8 57.2133 185.154 56.2633 184.698 55.174C184.267 54.0593 184.052 52.856 184.052 51.564V50.652H189.068V51.108C189.068 52.4507 189.473 53.5653 190.284 54.452C191.12 55.3133 192.336 55.744 193.932 55.744C195.528 55.744 196.782 55.3133 197.694 54.452C198.631 53.5907 199.1 52.4 199.1 50.88C199.1 49.436 198.758 48.3593 198.074 47.65C197.39 46.9153 196.491 46.548 195.376 46.548C194.641 46.548 194.046 46.7127 193.59 47.042C193.134 47.346 192.843 47.7133 192.716 48.144H184.508ZM212.906 52.476C212.906 53.3627 213.222 54.1353 213.856 54.794C214.514 55.4273 215.528 55.744 216.896 55.744C218.264 55.744 219.34 55.3513 220.126 54.566C220.936 53.7553 221.342 52.704 221.342 51.412V47.992H220.658C220.303 48.8787 219.72 49.6007 218.91 50.158C218.099 50.69 216.946 50.956 215.452 50.956C214.312 50.956 213.248 50.7533 212.26 50.348C211.297 49.9173 210.448 49.322 209.714 48.562C209.004 47.802 208.447 46.89 208.042 45.826C207.636 44.762 207.434 43.584 207.434 42.292V41.836C207.434 40.5693 207.662 39.3913 208.118 38.302C208.574 37.1873 209.207 36.2373 210.018 35.452C210.854 34.6413 211.854 34.008 213.02 33.552C214.21 33.096 215.528 32.868 216.972 32.868C218.289 32.868 219.518 33.0833 220.658 33.514C221.823 33.9447 222.824 34.5527 223.66 35.338C224.496 36.098 225.154 37.0227 225.636 38.112C226.117 39.176 226.358 40.354 226.358 41.646V51.336C226.358 52.78 226.117 54.072 225.636 55.212C225.154 56.352 224.496 57.3147 223.66 58.1C222.824 58.8853 221.836 59.4933 220.696 59.924C219.581 60.3293 218.365 60.532 217.048 60.532C215.756 60.532 214.552 60.3547 213.438 60C212.323 59.62 211.348 59.088 210.512 58.404C209.701 57.6947 209.055 56.846 208.574 55.858C208.118 54.87 207.89 53.7427 207.89 52.476H212.906ZM216.896 37.656C215.604 37.656 214.54 38.0487 213.704 38.834C212.868 39.594 212.45 40.62 212.45 41.912C212.45 43.204 212.868 44.2427 213.704 45.028C214.54 45.788 215.604 46.168 216.896 46.168C218.188 46.168 219.252 45.788 220.088 45.028C220.924 44.2427 221.342 43.204 221.342 41.912C221.342 40.62 220.924 39.594 220.088 38.834C219.252 38.0487 218.188 37.656 216.896 37.656Z" fill="white"/>
<path d="M187.652 79.024C187.652 78.752 187.596 78.512 187.484 78.304C187.38 78.096 187.236 77.924 187.052 77.788C186.868 77.652 186.656 77.548 186.416 77.476C186.176 77.404 185.924 77.368 185.66 77.368C185.428 77.368 185.208 77.4 185 77.464C184.792 77.52 184.604 77.604 184.436 77.716C184.276 77.828 184.148 77.968 184.052 78.136C183.956 78.296 183.908 78.484 183.908 78.7V78.772C183.908 79.004 183.956 79.204 184.052 79.372C184.148 79.532 184.288 79.672 184.472 79.792C184.664 79.904 184.9 80 185.18 80.08C185.46 80.152 185.788 80.216 186.164 80.272C187.044 80.408 187.692 80.668 188.108 81.052C188.524 81.428 188.732 81.936 188.732 82.576V82.72C188.732 83.08 188.668 83.412 188.54 83.716C188.42 84.012 188.236 84.268 187.988 84.484C187.748 84.7 187.448 84.868 187.088 84.988C186.728 85.108 186.312 85.168 185.84 85.168C185.304 85.168 184.828 85.092 184.412 84.94C184.004 84.78 183.66 84.564 183.38 84.292C183.108 84.012 182.9 83.688 182.756 83.32C182.612 82.944 182.54 82.536 182.54 82.096V81.736H183.548V82.024C183.548 82.76 183.748 83.312 184.148 83.68C184.556 84.048 185.12 84.232 185.84 84.232C186.464 84.232 186.932 84.096 187.244 83.824C187.564 83.544 187.724 83.176 187.724 82.72V82.648C187.724 82.208 187.56 81.872 187.232 81.64C186.912 81.408 186.388 81.24 185.66 81.136C185.236 81.08 184.852 80.996 184.508 80.884C184.172 80.764 183.884 80.612 183.644 80.428C183.404 80.236 183.22 80.008 183.092 79.744C182.964 79.48 182.9 79.168 182.9 78.808V78.664C182.9 78.336 182.968 78.036 183.104 77.764C183.24 77.492 183.428 77.256 183.668 77.056C183.916 76.856 184.208 76.704 184.544 76.6C184.888 76.488 185.264 76.432 185.672 76.432C186.144 76.432 186.564 76.5 186.932 76.636C187.308 76.772 187.624 76.956 187.88 77.188C188.136 77.412 188.328 77.68 188.456 77.992C188.592 78.296 188.66 78.616 188.66 78.952V79.456H187.652V79.024ZM191.076 82.312C191.1 82.904 191.284 83.38 191.628 83.74C191.972 84.1 192.452 84.28 193.068 84.28C193.348 84.28 193.592 84.248 193.8 84.184C194.008 84.12 194.184 84.032 194.328 83.92C194.48 83.808 194.6 83.68 194.688 83.536C194.784 83.384 194.86 83.224 194.916 83.056L195.804 83.296C195.636 83.848 195.324 84.3 194.868 84.652C194.42 84.996 193.812 85.168 193.044 85.168C192.62 85.168 192.228 85.096 191.868 84.952C191.516 84.8 191.212 84.588 190.956 84.316C190.7 84.044 190.5 83.72 190.356 83.344C190.212 82.968 190.14 82.552 190.14 82.096V81.808C190.14 81.392 190.212 81.004 190.356 80.644C190.508 80.284 190.716 79.976 190.98 79.72C191.244 79.456 191.552 79.252 191.904 79.108C192.264 78.956 192.652 78.88 193.068 78.88C193.556 78.88 193.976 78.972 194.328 79.156C194.688 79.332 194.98 79.552 195.204 79.816C195.436 80.08 195.604 80.368 195.708 80.68C195.82 80.992 195.876 81.28 195.876 81.544V82.312H191.076ZM193.068 79.768C192.804 79.768 192.556 79.812 192.324 79.9C192.1 79.98 191.9 80.096 191.724 80.248C191.556 80.4 191.416 80.58 191.304 80.788C191.2 80.988 191.132 81.208 191.1 81.448H194.94C194.924 81.192 194.86 80.96 194.748 80.752C194.644 80.544 194.504 80.368 194.328 80.224C194.16 80.08 193.964 79.968 193.74 79.888C193.524 79.808 193.3 79.768 193.068 79.768ZM203.307 82.888C203.243 83.216 203.131 83.52 202.971 83.8C202.819 84.08 202.623 84.324 202.383 84.532C202.143 84.732 201.863 84.888 201.543 85C201.223 85.112 200.867 85.168 200.475 85.168C200.059 85.168 199.663 85.1 199.287 84.964C198.919 84.828 198.595 84.632 198.315 84.376C198.035 84.112 197.811 83.792 197.643 83.416C197.483 83.04 197.403 82.608 197.403 82.12V81.976C197.403 81.496 197.483 81.064 197.643 80.68C197.811 80.296 198.035 79.972 198.315 79.708C198.595 79.444 198.919 79.24 199.287 79.096C199.663 78.952 200.059 78.88 200.475 78.88C200.851 78.88 201.199 78.936 201.519 79.048C201.839 79.16 202.119 79.32 202.359 79.528C202.607 79.728 202.807 79.968 202.959 80.248C203.119 80.528 203.227 80.832 203.283 81.16L202.347 81.376C202.323 81.168 202.263 80.968 202.167 80.776C202.079 80.576 201.955 80.404 201.795 80.26C201.643 80.108 201.455 79.988 201.231 79.9C201.007 79.812 200.747 79.768 200.451 79.768C200.163 79.768 199.891 79.824 199.635 79.936C199.387 80.04 199.167 80.192 198.975 80.392C198.783 80.584 198.631 80.816 198.519 81.088C198.415 81.36 198.363 81.656 198.363 81.976V82.12C198.363 82.456 198.415 82.76 198.519 83.032C198.631 83.296 198.783 83.52 198.975 83.704C199.167 83.888 199.391 84.032 199.647 84.136C199.903 84.232 200.179 84.28 200.475 84.28C200.771 84.28 201.027 84.236 201.243 84.148C201.467 84.052 201.655 83.932 201.807 83.788C201.967 83.636 202.091 83.464 202.179 83.272C202.275 83.08 202.339 82.88 202.371 82.672L203.307 82.888ZM210.703 82.096C210.703 82.592 210.619 83.032 210.451 83.416C210.291 83.792 210.075 84.112 209.803 84.376C209.531 84.632 209.211 84.828 208.843 84.964C208.483 85.1 208.107 85.168 207.715 85.168C207.315 85.168 206.935 85.1 206.575 84.964C206.215 84.828 205.899 84.632 205.627 84.376C205.355 84.112 205.135 83.792 204.967 83.416C204.807 83.032 204.727 82.592 204.727 82.096V81.952C204.727 81.464 204.807 81.032 204.967 80.656C205.135 80.272 205.355 79.948 205.627 79.684C205.907 79.42 206.227 79.22 206.587 79.084C206.947 78.948 207.323 78.88 207.715 78.88C208.107 78.88 208.483 78.948 208.843 79.084C209.203 79.22 209.519 79.42 209.791 79.684C210.071 79.948 210.291 80.272 210.451 80.656C210.619 81.032 210.703 81.464 210.703 81.952V82.096ZM207.715 84.28C208.003 84.28 208.267 84.232 208.507 84.136C208.755 84.032 208.971 83.884 209.155 83.692C209.339 83.5 209.483 83.272 209.587 83.008C209.691 82.736 209.743 82.432 209.743 82.096V81.952C209.743 81.632 209.691 81.34 209.587 81.076C209.483 80.804 209.339 80.572 209.155 80.38C208.971 80.188 208.755 80.04 208.507 79.936C208.259 79.824 207.995 79.768 207.715 79.768C207.435 79.768 207.171 79.824 206.923 79.936C206.675 80.04 206.459 80.188 206.275 80.38C206.091 80.572 205.947 80.804 205.843 81.076C205.739 81.34 205.687 81.632 205.687 81.952V82.096C205.687 82.432 205.739 82.736 205.843 83.008C205.947 83.272 206.091 83.5 206.275 83.692C206.459 83.884 206.671 84.032 206.911 84.136C207.159 84.232 207.427 84.28 207.715 84.28ZM213.371 85H212.435V79.048H213.371V80.056H213.515C213.883 79.272 214.523 78.88 215.435 78.88C216.123 78.88 216.671 79.096 217.079 79.528C217.487 79.952 217.691 80.592 217.691 81.448V85H216.755V81.64C216.755 81.016 216.615 80.548 216.335 80.236C216.055 79.924 215.675 79.768 215.195 79.768C214.627 79.768 214.179 79.964 213.851 80.356C213.531 80.74 213.371 81.256 213.371 81.904V85ZM224.39 84.088H224.246C224.15 84.272 224.026 84.432 223.874 84.568C223.73 84.704 223.57 84.816 223.394 84.904C223.226 84.992 223.046 85.056 222.854 85.096C222.662 85.144 222.478 85.168 222.302 85.168C221.902 85.168 221.53 85.1 221.186 84.964C220.842 84.828 220.538 84.632 220.274 84.376C220.018 84.12 219.814 83.804 219.662 83.428C219.518 83.044 219.446 82.608 219.446 82.12V81.928C219.446 81.448 219.522 81.02 219.674 80.644C219.826 80.26 220.03 79.94 220.286 79.684C220.542 79.42 220.842 79.22 221.186 79.084C221.53 78.948 221.894 78.88 222.278 78.88C222.686 78.88 223.066 78.972 223.418 79.156C223.778 79.332 224.054 79.608 224.246 79.984H224.39V76.6H225.326V85H224.39V84.088ZM222.398 84.28C222.678 84.28 222.938 84.228 223.178 84.124C223.418 84.02 223.626 83.872 223.802 83.68C223.986 83.488 224.13 83.26 224.234 82.996C224.338 82.724 224.39 82.424 224.39 82.096V81.952C224.39 81.632 224.338 81.34 224.234 81.076C224.13 80.804 223.986 80.572 223.802 80.38C223.626 80.188 223.414 80.04 223.166 79.936C222.926 79.824 222.67 79.768 222.398 79.768C222.118 79.768 221.854 79.82 221.606 79.924C221.366 80.028 221.154 80.176 220.97 80.368C220.794 80.56 220.654 80.788 220.55 81.052C220.454 81.316 220.406 81.608 220.406 81.928V82.12C220.406 82.456 220.454 82.756 220.55 83.02C220.654 83.284 220.794 83.512 220.97 83.704C221.154 83.888 221.366 84.032 221.606 84.136C221.846 84.232 222.11 84.28 222.398 84.28ZM228.366 80.584C228.366 80.872 228.486 81.092 228.726 81.244C228.974 81.396 229.422 81.496 230.07 81.544C230.766 81.6 231.294 81.768 231.654 82.048C232.022 82.32 232.206 82.72 232.206 83.248V83.32C232.206 83.608 232.146 83.868 232.026 84.1C231.914 84.324 231.754 84.516 231.546 84.676C231.346 84.836 231.098 84.956 230.802 85.036C230.514 85.124 230.198 85.168 229.854 85.168C229.39 85.168 228.99 85.108 228.654 84.988C228.326 84.86 228.05 84.696 227.826 84.496C227.61 84.288 227.446 84.056 227.334 83.8C227.222 83.536 227.158 83.272 227.142 83.008L228.03 82.792C228.07 83.248 228.246 83.616 228.558 83.896C228.87 84.168 229.286 84.304 229.806 84.304C230.246 84.304 230.598 84.22 230.862 84.052C231.134 83.876 231.27 83.632 231.27 83.32C231.27 82.984 231.138 82.744 230.874 82.6C230.61 82.456 230.182 82.364 229.59 82.324C228.902 82.276 228.374 82.116 228.006 81.844C227.638 81.572 227.454 81.176 227.454 80.656V80.584C227.454 80.304 227.514 80.06 227.634 79.852C227.754 79.636 227.914 79.456 228.114 79.312C228.322 79.168 228.554 79.06 228.81 78.988C229.066 78.916 229.334 78.88 229.614 78.88C230.006 78.88 230.35 78.936 230.646 79.048C230.942 79.152 231.19 79.292 231.39 79.468C231.59 79.636 231.742 79.832 231.846 80.056C231.958 80.28 232.03 80.504 232.062 80.728L231.174 80.944C231.134 80.56 230.978 80.26 230.706 80.044C230.442 79.828 230.094 79.72 229.662 79.72C229.494 79.72 229.33 79.74 229.17 79.78C229.018 79.812 228.882 79.864 228.762 79.936C228.642 80.008 228.546 80.1 228.474 80.212C228.402 80.316 228.366 80.44 228.366 80.584Z" fill="white"/>
</g>
<defs>
<filter id="filter0_b_3748_9985" x="-10" y="-10" width="255" height="105.168" filterUnits="userSpaceOnUse" color-interpolation-filters="sRGB">
<feFlood flood-opacity="0" result="BackgroundImageFix"/>
<feGaussianBlur in="BackgroundImageFix" stdDeviation="5"/>
<feComposite in2="SourceAlpha" operator="in" result="effect1_backgroundBlur_3748_9985"/>
<feBlend mode="normal" in="SourceGraphic" in2="effect1_backgroundBlur_3748_9985" result="shape"/>
</filter>
</defs>
</svg>
